<svg width="406" xmlns="http://www.w3.org/2000/svg" height="479" id="screenshot-9c1ca086-49ef-802c-8005-be9f857680d9" fill="none" version="1.1"><style>/* latin */
@font-face {
  font-family: &apos;Trochut&apos;;
  font-style: normal;
  font-weight: 400;
  font-display: block;
  src: url(https://design.penpot.app/internal/gfonts/font/trochut/v22/CHyjV-fDDlP9bDIw1nOCfA.woff2) format(&apos;woff2&apos;);
  unicode-range: U+0000-00FF, U+0131, U+0152-0153, U+02BB-02BC, U+02C6, U+02DA, U+02DC, U+0304, U+0308, U+0329, U+2000-206F, U+20AC, U+2122, U+2191, U+2193, U+2212, U+2215, U+FEFF, U+FFFD;
}</style><g id="shape-9c1ca086-49ef-802c-8005-be9f857680d9"><defs><clipPath id="frame-clip-9c1ca086-49ef-802c-8005-be9f857680d9-render-1" class="frame-clip frame-clip-def"><rect rx="0" ry="0" width="406" height="479" transform="matrix(1.000000, 0.000000, 0.000000, 1.000000, 0.000000, 0.000000)"/></clipPath></defs><g clip-path="url(#frame-clip-9c1ca086-49ef-802c-8005-be9f857680d9-render-1)"><g class="fills" id="fills-9c1ca086-49ef-802c-8005-be9f857680d9"><rect width="406" height="479" class="frame-background" transform="matrix(1.000000, 0.000000, 0.000000, 1.000000, 0.000000, 0.000000)" style="fill: rgb(255, 255, 255); fill-opacity: 0;" ry="0" rx="0"/></g><g class="frame-children"><g id="shape-9c1ca086-49ef-802c-8005-be9f857680da" style="opacity: 1;"><g id="shape-9c1ca086-49ef-802c-8005-be9f857680db"><defs><filter id="filter-render-3" x="-.117" y="-1.944" width="1.273" height="5.556" filterUnits="objectBoundingBox" color-interpolation-filters="sRGB"><feFlood flood-opacity="0" result="BackgroundImageFix"/><feColorMatrix in="SourceAlpha" values="0 0 0 0 0 0 0 0 0 0 0 0 0 0 0 0 0 0 127 0"/><feOffset dx="4" dy="4"/><feGaussianBlur stdDeviation="2"/><feColorMatrix values="0 0 0 0 0 0 0 0 0 0 0 0 0 0 0 0 0 0 0.2 0"/><feBlend in2="BackgroundImageFix" result="filter_dbcd8af7-09d9-802b-8005-b3daabb5e9ca"/><feBlend in="SourceGraphic" in2="filter_dbcd8af7-09d9-802b-8005-b3daabb5e9ca" result="shape"/><feGaussianBlur stdDeviation="4" result="filter_dbcd8af7-09d9-802b-8005-b3da4ee93179"/></filter><filter id="filter-shadow-render-3" x="-.09" y="-1.5" width="1.22" height="4.667" filterUnits="objectBoundingBox" color-interpolation-filters="sRGB"><feFlood flood-opacity="0" result="BackgroundImageFix"/><feColorMatrix in="SourceAlpha" values="0 0 0 0 0 0 0 0 0 0 0 0 0 0 0 0 0 0 127 0"/><feOffset dx="4" dy="4"/><feGaussianBlur stdDeviation="2"/><feColorMatrix values="0 0 0 0 0 0 0 0 0 0 0 0 0 0 0 0 0 0 0.2 0"/><feBlend in2="BackgroundImageFix" result="filter_dbcd8af7-09d9-802b-8005-b3daabb5e9ca"/><feBlend in="SourceGraphic" in2="filter_dbcd8af7-09d9-802b-8005-b3daabb5e9ca" result="shape"/></filter><filter id="filter-blur-render-3" x="-.027" y="-.444" width="1.053" height="1.889" filterUnits="objectBoundingBox" color-interpolation-filters="sRGB"><feFlood flood-opacity="0" result="BackgroundImageFix"/><feBlend in="SourceGraphic" in2="BackgroundImageFix" result="shape"/><feGaussianBlur stdDeviation="4" result="filter_dbcd8af7-09d9-802b-8005-b3da4ee93179"/></filter></defs><ellipse cx="192.523" cy="453.181" rx="150" ry="9" transform="matrix(1.000000, 0.000000, 0.000000, 1.000000, 0.000000, 0.000000)" filter="url(#filter-render-3)" style="fill: rgb(132, 129, 129); fill-opacity: 0.3;" class="fills" id="fills-9c1ca086-49ef-802c-8005-be9f857680db"/></g><g id="shape-9c1ca086-49ef-802c-8005-be9f857680dc"><path d="M74.01429898321044,70.21400737628676 h201.00000000000114 a100,100 0 0 1 100,100 v197.99999999999966 a0,0 0 0 1 0,0 h-201.00000000000114 a100,100 0 0 1 -100,-100 v-197.99999999999966 a0,0 0 0 1 0,0 z" transform="matrix(0.721419, 0.692499, -0.692499, 0.721419, 214.351084, -94.407039)" style="fill: rgb(0, 0, 0); fill-opacity: 1;" class="fills" id="fills-9c1ca086-49ef-802c-8005-be9f857680dc"/><g id="strokes-9c1ca086-49ef-802c-8005-be9f857680dc" class="strokes"><g class="inner-stroke-shape" transform="matrix(0.721419, 0.692499, -0.692499, 0.721419, 214.351084, -94.407039)"><defs><clipPath id="inner-stroke-render-4-9c1ca086-49ef-802c-8005-be9f857680dc-0"><use href="#stroke-shape-render-4-9c1ca086-49ef-802c-8005-be9f857680dc-0"/></clipPath><path d="M74.01429898321044,70.21400737628676 h201.00000000000114 a100,100 0 0 1 100,100 v197.99999999999966 a0,0 0 0 1 0,0 h-201.00000000000114 a100,100 0 0 1 -100,-100 v-197.99999999999966 a0,0 0 0 1 0,0 z" id="stroke-shape-render-4-9c1ca086-49ef-802c-8005-be9f857680dc-0" style="fill: none; stroke-width: 2; stroke: rgb(255, 255, 255); stroke-opacity: 0.8;"/></defs><use href="#stroke-shape-render-4-9c1ca086-49ef-802c-8005-be9f857680dc-0" clip-path="url('#inner-stroke-render-4-9c1ca086-49ef-802c-8005-be9f857680dc-0')"/></g></g></g><g id="shape-9c1ca086-49ef-802c-8005-be9f857680dd"><path d="M57.75841182225474,70.50149896535811 h201.00000000000148 a100,100 0 0 1 100,100 v197.99999999999966 a0,0 0 0 1 0,0 h-201.00000000000148 a100,100 0 0 1 -100,-100 v-197.99999999999966 a0,0 0 0 1 0,0 z" transform="matrix(0.721419, 0.692499, -0.692499, 0.721419, 210.021583, -83.069758)" style="fill: rgb(0, 0, 0); fill-opacity: 1;" class="fills" id="fills-9c1ca086-49ef-802c-8005-be9f857680dd"/><g id="strokes-9c1ca086-49ef-802c-8005-be9f857680dd" class="strokes"><g class="inner-stroke-shape" transform="matrix(0.721419, 0.692499, -0.692499, 0.721419, 210.021583, -83.069758)"><defs><clipPath id="inner-stroke-render-5-9c1ca086-49ef-802c-8005-be9f857680dd-0"><use href="#stroke-shape-render-5-9c1ca086-49ef-802c-8005-be9f857680dd-0"/></clipPath><path d="M57.75841182225474,70.50149896535811 h201.00000000000148 a100,100 0 0 1 100,100 v197.99999999999966 a0,0 0 0 1 0,0 h-201.00000000000148 a100,100 0 0 1 -100,-100 v-197.99999999999966 a0,0 0 0 1 0,0 z" id="stroke-shape-render-5-9c1ca086-49ef-802c-8005-be9f857680dd-0" style="fill: none; stroke-width: 2; stroke: rgb(255, 255, 255); stroke-opacity: 1;"/></defs><use href="#stroke-shape-render-5-9c1ca086-49ef-802c-8005-be9f857680dd-0" clip-path="url('#inner-stroke-render-5-9c1ca086-49ef-802c-8005-be9f857680dd-0')"/></g></g></g><g id="shape-9c1ca086-49ef-802c-8005-be9f857680de"><path d="M42.50252466129905,70.78899055442946 h201.0000000000009 a100,100 0 0 1 100,100 v197.99999999999966 a0,0 0 0 1 0,0 h-201.0000000000009 a100,100 0 0 1 -100,-100 v-197.99999999999966 a0,0 0 0 1 0,0 z" transform="matrix(0.721419, 0.692499, -0.692499, 0.721419, 205.970662, -72.424976)" style="fill: rgb(0, 0, 0); fill-opacity: 1;" class="fills" id="fills-9c1ca086-49ef-802c-8005-be9f857680de"/><g id="strokes-9c1ca086-49ef-802c-8005-be9f857680de" class="strokes"><g class="inner-stroke-shape" transform="matrix(0.721419, 0.692499, -0.692499, 0.721419, 205.970662, -72.424976)"><defs><clipPath id="inner-stroke-render-6-9c1ca086-49ef-802c-8005-be9f857680de-0"><use href="#stroke-shape-render-6-9c1ca086-49ef-802c-8005-be9f857680de-0"/></clipPath><path d="M42.50252466129905,70.78899055442946 h201.0000000000009 a100,100 0 0 1 100,100 v197.99999999999966 a0,0 0 0 1 0,0 h-201.0000000000009 a100,100 0 0 1 -100,-100 v-197.99999999999966 a0,0 0 0 1 0,0 z" id="stroke-shape-render-6-9c1ca086-49ef-802c-8005-be9f857680de-0" style="fill: none; stroke-width: 2; stroke: rgb(255, 255, 255); stroke-opacity: 1;"/></defs><use href="#stroke-shape-render-6-9c1ca086-49ef-802c-8005-be9f857680de-0" clip-path="url('#inner-stroke-render-6-9c1ca086-49ef-802c-8005-be9f857680de-0')"/></g></g></g><g id="shape-9c1ca086-49ef-802c-8005-be9f8576f4e1"><path d="M29.09164145543673,70.40499318851471 h201.00000000000068 a100,100 0 0 1 100,100 v197.99999999999977 a0,0 0 0 1 0,0 h-201.00000000000068 a100,100 0 0 1 -100,-100 v-197.99999999999977 a0,0 0 0 1 0,0 z" transform="matrix(0.721419, 0.692499, -0.692499, 0.721419, 201.968721, -63.244923)" style="fill: rgb(255, 255, 255); fill-opacity: 1;" class="fills" id="fills-9c1ca086-49ef-802c-8005-be9f8576f4e1"/></g><g transform="matrix(0.721419, 0.692499, -0.692499, 0.721419, 194.859413, -66.229590)" class="text-container" id="shape-9c1ca086-49ef-802c-8005-be9f8576f4e2"><defs><pattern patternUnits="userSpaceOnUse" x="100.247" y="29.076" width="170.104" height="353.333" id="fill-0-render-8-0"><rect width="170.104" height="353.333" style="fill: rgb(0, 0, 0); fill-opacity: 1;"/></pattern></defs><text x="100.247" y="385.743" dominant-baseline="ideographic" textLength="170.104" lengthAdjust="spacingAndGlyphs" style="text-transform: none; font-family: Trochut; letter-spacing: normal; font-style: normal; font-weight: 400; white-space: pre; font-size: 300px; text-decoration: none solid rgb(0, 0, 0); direction: ltr; fill: rgb(0, 0, 0); fill-opacity: 1;" class="fills" id="fills-9c1ca086-49ef-802c-8005-be9f8576f4e2">E</text></g></g></g></g></g></svg>