<svg width="630.48" xmlns="http://www.w3.org/2000/svg" height="631.055" id="screenshot-dbcd8af7-09d9-802b-8005-b3d2cb763547" viewBox="-97.158 -87.496 630.48 631.055" fill="none" version="1.1"><style>/* latin */
@font-face {
  font-family: &apos;Trochut&apos;;
  font-style: normal;
  font-weight: 400;
  font-display: block;
  src: url(https://design.penpot.app/internal/gfonts/font/trochut/v22/CHyjV-fDDlP9bDIw1nOCfA.woff2) format(&apos;woff2&apos;);
  unicode-range: U+0000-00FF, U+0131, U+0152-0153, U+02BB-02BC, U+02C6, U+02DA, U+02DC, U+0304, U+0308, U+0329, U+2000-206F, U+20AC, U+2122, U+2191, U+2193, U+2212, U+2215, U+FEFF, U+FFFD;
}</style><g id="shape-dbcd8af7-09d9-802b-8005-b3d2cb763547" style="opacity: 1;"><g id="shape-dbcd8af7-09d9-802b-8005-b3d7804de41e"><defs><filter id="filter-render-2" x="-.117" y="-1.944" width="1.273" height="5.556" filterUnits="objectBoundingBox" color-interpolation-filters="sRGB"><feFlood flood-opacity="0" result="BackgroundImageFix"/><feColorMatrix in="SourceAlpha" values="0 0 0 0 0 0 0 0 0 0 0 0 0 0 0 0 0 0 127 0"/><feOffset dx="4" dy="4"/><feGaussianBlur stdDeviation="2"/><feColorMatrix values="0 0 0 0 0 0 0 0 0 0 0 0 0 0 0 0 0 0 0.2 0"/><feBlend in2="BackgroundImageFix" result="filter_dbcd8af7-09d9-802b-8005-b3daabb5e9ca"/><feBlend in="SourceGraphic" in2="filter_dbcd8af7-09d9-802b-8005-b3daabb5e9ca" result="shape"/><feGaussianBlur stdDeviation="4" result="filter_dbcd8af7-09d9-802b-8005-b3da4ee93179"/></filter><filter id="filter-shadow-render-2" x="-.09" y="-1.5" width="1.22" height="4.667" filterUnits="objectBoundingBox" color-interpolation-filters="sRGB"><feFlood flood-opacity="0" result="BackgroundImageFix"/><feColorMatrix in="SourceAlpha" values="0 0 0 0 0 0 0 0 0 0 0 0 0 0 0 0 0 0 127 0"/><feOffset dx="4" dy="4"/><feGaussianBlur stdDeviation="2"/><feColorMatrix values="0 0 0 0 0 0 0 0 0 0 0 0 0 0 0 0 0 0 0.2 0"/><feBlend in2="BackgroundImageFix" result="filter_dbcd8af7-09d9-802b-8005-b3daabb5e9ca"/><feBlend in="SourceGraphic" in2="filter_dbcd8af7-09d9-802b-8005-b3daabb5e9ca" result="shape"/></filter><filter id="filter-blur-render-2" x="-.027" y="-.444" width="1.053" height="1.889" filterUnits="objectBoundingBox" color-interpolation-filters="sRGB"><feFlood flood-opacity="0" result="BackgroundImageFix"/><feBlend in="SourceGraphic" in2="BackgroundImageFix" result="shape"/><feGaussianBlur stdDeviation="4" result="filter_dbcd8af7-09d9-802b-8005-b3da4ee93179"/></filter></defs><ellipse cx="211.365" cy="384.684" rx="150" ry="9" transform="matrix(1.000000, 0.000000, 0.000000, 1.000000, 0.000000, 0.000000)" filter="url(#filter-render-2)" style="fill: rgb(132, 129, 129); fill-opacity: 0.3;" class="fills" id="fills-dbcd8af7-09d9-802b-8005-b3d7804de41e"/></g><g id="shape-dbcd8af7-09d9-802b-8005-b3d538177a97"><path d="M92.85636962426452,1.7177165942363786 h200.99999999999972 a100,100 0 0 1 100,100 v197.99999999999994 a0,0 0 0 1 0,0 h-200.99999999999972 a100,100 0 0 1 -100,-100 v-197.99999999999994 a0,0 0 0 1 0,0 z" transform="matrix(0.721419, 0.692499, -0.692499, 0.721419, 172.166500, -126.536959)" style="fill: rgb(255, 255, 255); fill-opacity: 1;" class="fills" id="fills-dbcd8af7-09d9-802b-8005-b3d538177a97"/><g id="strokes-dbcd8af7-09d9-802b-8005-b3d538177a97" class="strokes"><g class="inner-stroke-shape" transform="matrix(0.721419, 0.692499, -0.692499, 0.721419, 172.166500, -126.536959)"><defs><clipPath id="inner-stroke-render-3-dbcd8af7-09d9-802b-8005-b3d538177a97-0"><use href="#stroke-shape-render-3-dbcd8af7-09d9-802b-8005-b3d538177a97-0"/></clipPath><path d="M92.85636962426452,1.7177165942363786 h200.99999999999972 a100,100 0 0 1 100,100 v197.99999999999994 a0,0 0 0 1 0,0 h-200.99999999999972 a100,100 0 0 1 -100,-100 v-197.99999999999994 a0,0 0 0 1 0,0 z" id="stroke-shape-render-3-dbcd8af7-09d9-802b-8005-b3d538177a97-0" style="fill: none; stroke-width: 2; stroke: rgb(9, 9, 9); stroke-opacity: 0.8;"/></defs><use href="#stroke-shape-render-3-dbcd8af7-09d9-802b-8005-b3d538177a97-0" clip-path="url('#inner-stroke-render-3-dbcd8af7-09d9-802b-8005-b3d538177a97-0')"/></g></g></g><g id="shape-dbcd8af7-09d9-802b-8005-b3d4bce05a6b"><path d="M76.60048246330899,2.0052081833077295 h200.9999999999999 a100,100 0 0 1 100,100 v197.99999999999994 a0,0 0 0 1 0,0 h-200.9999999999999 a100,100 0 0 1 -100,-100 v-197.99999999999994 a0,0 0 0 1 0,0 z" transform="matrix(0.721419, 0.692499, -0.692499, 0.721419, 167.836998, -115.199678)" style="fill: rgb(255, 255, 255); fill-opacity: 1;" class="fills" id="fills-dbcd8af7-09d9-802b-8005-b3d4bce05a6b"/><g id="strokes-dbcd8af7-09d9-802b-8005-b3d4bce05a6b" class="strokes"><g class="inner-stroke-shape" transform="matrix(0.721419, 0.692499, -0.692499, 0.721419, 167.836998, -115.199678)"><defs><clipPath id="inner-stroke-render-4-dbcd8af7-09d9-802b-8005-b3d4bce05a6b-0"><use href="#stroke-shape-render-4-dbcd8af7-09d9-802b-8005-b3d4bce05a6b-0"/></clipPath><path d="M76.60048246330899,2.0052081833077295 h200.9999999999999 a100,100 0 0 1 100,100 v197.99999999999994 a0,0 0 0 1 0,0 h-200.9999999999999 a100,100 0 0 1 -100,-100 v-197.99999999999994 a0,0 0 0 1 0,0 z" id="stroke-shape-render-4-dbcd8af7-09d9-802b-8005-b3d4bce05a6b-0" style="fill: none; stroke-width: 2; stroke: rgb(0, 0, 0); stroke-opacity: 1;"/></defs><use href="#stroke-shape-render-4-dbcd8af7-09d9-802b-8005-b3d4bce05a6b-0" clip-path="url('#inner-stroke-render-4-dbcd8af7-09d9-802b-8005-b3d4bce05a6b-0')"/></g></g></g><g id="shape-dbcd8af7-09d9-802b-8005-b3d4858b168a"><path d="M61.344595302353525,2.2926997723790805 h200.99999999999977 a100,100 0 0 1 100,100 v197.99999999999994 a0,0 0 0 1 0,0 h-200.99999999999977 a100,100 0 0 1 -100,-100 v-197.99999999999994 a0,0 0 0 1 0,0 z" transform="matrix(0.721419, 0.692499, -0.692499, 0.721419, 163.786078, -104.554896)" style="fill: rgb(255, 255, 255); fill-opacity: 1;" class="fills" id="fills-dbcd8af7-09d9-802b-8005-b3d4858b168a"/><g id="strokes-dbcd8af7-09d9-802b-8005-b3d4858b168a" class="strokes"><g class="inner-stroke-shape" transform="matrix(0.721419, 0.692499, -0.692499, 0.721419, 163.786078, -104.554896)"><defs><clipPath id="inner-stroke-render-5-dbcd8af7-09d9-802b-8005-b3d4858b168a-0"><use href="#stroke-shape-render-5-dbcd8af7-09d9-802b-8005-b3d4858b168a-0"/></clipPath><path d="M61.344595302353525,2.2926997723790805 h200.99999999999977 a100,100 0 0 1 100,100 v197.99999999999994 a0,0 0 0 1 0,0 h-200.99999999999977 a100,100 0 0 1 -100,-100 v-197.99999999999994 a0,0 0 0 1 0,0 z" id="stroke-shape-render-5-dbcd8af7-09d9-802b-8005-b3d4858b168a-0" style="fill: none; stroke-width: 2; stroke: rgb(0, 0, 0); stroke-opacity: 1;"/></defs><use href="#stroke-shape-render-5-dbcd8af7-09d9-802b-8005-b3d4858b168a-0" clip-path="url('#inner-stroke-render-5-dbcd8af7-09d9-802b-8005-b3d4858b168a-0')"/></g></g></g><g id="shape-dbcd8af7-09d9-802b-8005-b3d201539ccc"><path d="M47.93371209649115,1.9087024064643288 h200.99999999999983 a100,100 0 0 1 100,100 v198.00000000000006 a0,0 0 0 1 0,0 h-200.99999999999983 a100,100 0 0 1 -100,-100 v-198.00000000000006 a0,0 0 0 1 0,0 z" transform="matrix(0.721419, 0.692499, -0.692499, 0.721419, 159.784137, -95.374843)" style="fill: rgb(7, 7, 7); fill-opacity: 1;" class="fills" id="fills-dbcd8af7-09d9-802b-8005-b3d201539ccc"/></g><g transform="matrix(0.721419, 0.692499, -0.692499, 0.721419, 157.944151, -99.458018)" class="text-container" id="shape-7bcfbc09-7a23-80d3-8005-ad0679771baa"><defs><pattern patternUnits="userSpaceOnUse" x="123.089" y="-33.42" width="170.112" height="352.857" id="fill-0-render-7-0"><rect width="170.112" height="352.857" style="fill: rgb(246, 246, 246); fill-opacity: 1;"/></pattern></defs><text x="123.089" y="322.294" dominant-baseline="ideographic" textLength="170.112" lengthAdjust="spacingAndGlyphs" style="text-transform: none; font-family: Trochut; letter-spacing: normal; font-style: normal; font-weight: 400; white-space: pre; font-size: 300px; text-decoration: none solid rgb(246, 246, 246); direction: ltr; fill: rgb(246, 246, 246); fill-opacity: 1;" class="fills" id="fills-7bcfbc09-7a23-80d3-8005-ad0679771baa">E</text></g></g></svg>