<svg width="489.731" xmlns="http://www.w3.org/2000/svg" height="490.504" id="screenshot-dbcd8af7-09d9-802b-8005-b3d2cb763547" viewBox="-78.228 -65.252 489.731 490.504" fill="none" version="1.1"><style>/* latin */
@font-face {
  font-family: &apos;Trochut&apos;;
  font-style: normal;
  font-weight: 400;
  font-display: block;
  src: url(https://design.penpot.app/internal/gfonts/font/trochut/v22/CHyjV-fDDlP9bDIw1nOCfA.woff2) format(&apos;woff2&apos;);
  unicode-range: U+0000-00FF, U+0131, U+0152-0153, U+02BB-02BC, U+02C6, U+02DA, U+02DC, U+0304, U+0308, U+0329, U+2000-206F, U+20AC, U+2122, U+2191, U+2193, U+2212, U+2215, U+FEFF, U+FFFD;
}</style><g id="shape-dbcd8af7-09d9-802b-8005-b3d2cb763547"><g id="shape-dbcd8af7-09d9-802b-8005-b3d538177a97"><path d="M45.26337882521216,23.962047392658576 h200.99999999999977 a100,100 0 0 1 100,100 v197.99999999999994 a0,0 0 0 1 0,0 h-200.99999999999977 a100,100 0 0 1 -100,-100 v-197.99999999999994 a0,0 0 0 1 0,0 z" transform="matrix(0.721419, 0.692499, -0.692499, 0.721419, 174.312158, -87.381985)" class="fills" id="fills-dbcd8af7-09d9-802b-8005-b3d538177a97"/><g id="strokes-dbcd8af7-09d9-802b-8005-b3d538177a97" class="strokes"><g class="inner-stroke-shape" transform="matrix(0.721419, 0.692499, -0.692499, 0.721419, 174.312158, -87.381985)"><defs><clipPath id="inner-stroke-render-2-dbcd8af7-09d9-802b-8005-b3d538177a97-0"><use href="#stroke-shape-render-2-dbcd8af7-09d9-802b-8005-b3d538177a97-0"/></clipPath><path d="M45.26337882521216,23.962047392658576 h200.99999999999977 a100,100 0 0 1 100,100 v197.99999999999994 a0,0 0 0 1 0,0 h-200.99999999999977 a100,100 0 0 1 -100,-100 v-197.99999999999994 a0,0 0 0 1 0,0 z" id="stroke-shape-render-2-dbcd8af7-09d9-802b-8005-b3d538177a97-0" style="fill: none; stroke-width: 2; stroke: rgb(9, 9, 9); stroke-opacity: 0.8;"/></defs><use href="#stroke-shape-render-2-dbcd8af7-09d9-802b-8005-b3d538177a97-0" clip-path="url('#inner-stroke-render-2-dbcd8af7-09d9-802b-8005-b3d538177a97-0')"/></g></g></g><g id="shape-dbcd8af7-09d9-802b-8005-b3d4bce05a6b"><path d="M29.007491664256634,24.249538981729927 h200.99999999999994 a100,100 0 0 1 100,100 v197.99999999999994 a0,0 0 0 1 0,0 h-200.99999999999994 a100,100 0 0 1 -100,-100 v-197.99999999999994 a0,0 0 0 1 0,0 z" transform="matrix(0.721419, 0.692499, -0.692499, 0.721419, 169.982656, -76.044705)" class="fills" id="fills-dbcd8af7-09d9-802b-8005-b3d4bce05a6b"/><g id="strokes-dbcd8af7-09d9-802b-8005-b3d4bce05a6b" class="strokes"><g class="inner-stroke-shape" transform="matrix(0.721419, 0.692499, -0.692499, 0.721419, 169.982656, -76.044705)"><defs><clipPath id="inner-stroke-render-3-dbcd8af7-09d9-802b-8005-b3d4bce05a6b-0"><use href="#stroke-shape-render-3-dbcd8af7-09d9-802b-8005-b3d4bce05a6b-0"/></clipPath><path d="M29.007491664256634,24.249538981729927 h200.99999999999994 a100,100 0 0 1 100,100 v197.99999999999994 a0,0 0 0 1 0,0 h-200.99999999999994 a100,100 0 0 1 -100,-100 v-197.99999999999994 a0,0 0 0 1 0,0 z" id="stroke-shape-render-3-dbcd8af7-09d9-802b-8005-b3d4bce05a6b-0" style="fill: none; stroke-width: 2; stroke: rgb(0, 0, 0); stroke-opacity: 1;"/></defs><use href="#stroke-shape-render-3-dbcd8af7-09d9-802b-8005-b3d4bce05a6b-0" clip-path="url('#inner-stroke-render-3-dbcd8af7-09d9-802b-8005-b3d4bce05a6b-0')"/></g></g></g><g id="shape-dbcd8af7-09d9-802b-8005-b3d4858b168a"><path d="M13.751604503301166,24.537030570801278 h200.99999999999983 a100,100 0 0 1 100,100 v197.99999999999994 a0,0 0 0 1 0,0 h-200.99999999999983 a100,100 0 0 1 -100,-100 v-197.99999999999994 a0,0 0 0 1 0,0 z" transform="matrix(0.721419, 0.692499, -0.692499, 0.721419, 165.931736, -65.399923)" class="fills" id="fills-dbcd8af7-09d9-802b-8005-b3d4858b168a"/><g id="strokes-dbcd8af7-09d9-802b-8005-b3d4858b168a" class="strokes"><g class="inner-stroke-shape" transform="matrix(0.721419, 0.692499, -0.692499, 0.721419, 165.931736, -65.399923)"><defs><clipPath id="inner-stroke-render-4-dbcd8af7-09d9-802b-8005-b3d4858b168a-0"><use href="#stroke-shape-render-4-dbcd8af7-09d9-802b-8005-b3d4858b168a-0"/></clipPath><path d="M13.751604503301166,24.537030570801278 h200.99999999999983 a100,100 0 0 1 100,100 v197.99999999999994 a0,0 0 0 1 0,0 h-200.99999999999983 a100,100 0 0 1 -100,-100 v-197.99999999999994 a0,0 0 0 1 0,0 z" id="stroke-shape-render-4-dbcd8af7-09d9-802b-8005-b3d4858b168a-0" style="fill: none; stroke-width: 2; stroke: rgb(0, 0, 0); stroke-opacity: 1;"/></defs><use href="#stroke-shape-render-4-dbcd8af7-09d9-802b-8005-b3d4858b168a-0" clip-path="url('#inner-stroke-render-4-dbcd8af7-09d9-802b-8005-b3d4858b168a-0')"/></g></g></g><g id="shape-dbcd8af7-09d9-802b-8005-b3d201539ccc"><path d="M0.3407212974387903,24.153033204886526 h200.9999999999999 a100,100 0 0 1 100,100 v198.00000000000006 a0,0 0 0 1 0,0 h-200.9999999999999 a100,100 0 0 1 -100,-100 v-198.00000000000006 a0,0 0 0 1 0,0 z" transform="matrix(0.721419, 0.692499, -0.692499, 0.721419, 161.929795, -56.219870)" style="fill: rgb(7, 7, 7); fill-opacity: 1;" class="fills" id="fills-dbcd8af7-09d9-802b-8005-b3d201539ccc"/></g><g transform="matrix(0.721419, 0.692499, -0.692499, 0.721419, 160.089809, -60.303045)" class="text-container" id="shape-7bcfbc09-7a23-80d3-8005-ad0679771baa"><defs><pattern patternUnits="userSpaceOnUse" x="75.496" y="-11.175" width="170.114" height="352.727" id="fill-0-render-6-0"><rect width="170.114" height="352.727" style="fill: rgb(246, 246, 246); fill-opacity: 1;"/></pattern></defs><text x="75.496" y="345.188" dominant-baseline="ideographic" textLength="170.114" lengthAdjust="spacingAndGlyphs" style="text-transform: none; font-family: Trochut; letter-spacing: normal; font-style: normal; font-weight: 400; white-space: pre; font-size: 300px; text-decoration: none solid rgb(246, 246, 246); direction: ltr; fill: rgb(246, 246, 246); fill-opacity: 1;" class="fills" id="fills-7bcfbc09-7a23-80d3-8005-ad0679771baa">E</text></g></g></svg>