<svg width="406" xmlns="http://www.w3.org/2000/svg" height="479" id="screenshot-7bcfbc09-7a23-80d3-8005-ad0658aff661" fill="none" version="1.1"><style>/* latin */
@font-face {
  font-family: &apos;Trochut&apos;;
  font-style: normal;
  font-weight: 400;
  font-display: block;
  src: url(https://design.penpot.app/internal/gfonts/font/trochut/v22/CHyjV-fDDlP9bDIw1nOCfA.woff2) format(&apos;woff2&apos;);
  unicode-range: U+0000-00FF, U+0131, U+0152-0153, U+02BB-02BC, U+02C6, U+02DA, U+02DC, U+0304, U+0308, U+0329, U+2000-206F, U+20AC, U+2122, U+2191, U+2193, U+2212, U+2215, U+FEFF, U+FFFD;
}</style><g id="shape-7bcfbc09-7a23-80d3-8005-ad0658aff661"><defs><clipPath id="frame-clip-7bcfbc09-7a23-80d3-8005-ad0658aff661-render-1" class="frame-clip frame-clip-def"><rect rx="0" ry="0" width="406" height="479" transform="matrix(1.000000, 0.000000, 0.000000, 1.000000, 0.000000, 0.000000)"/></clipPath></defs><g clip-path="url(#frame-clip-7bcfbc09-7a23-80d3-8005-ad0658aff661-render-1)"><g class="fills" id="fills-7bcfbc09-7a23-80d3-8005-ad0658aff661"><rect width="406" height="479" class="frame-background" transform="matrix(1.000000, 0.000000, 0.000000, 1.000000, 0.000000, 0.000000)" style="fill: rgb(255, 255, 255); fill-opacity: 0;" ry="0" rx="0"/></g><g class="frame-children"><g id="shape-dbcd8af7-09d9-802b-8005-b3d2cb763547" style="opacity: 1;"><g id="shape-dbcd8af7-09d9-802b-8005-b3d7804de41e"><defs><filter id="filter-render-3" x="-.117" y="-1.944" width="1.273" height="5.556" filterUnits="objectBoundingBox" color-interpolation-filters="sRGB"><feFlood flood-opacity="0" result="BackgroundImageFix"/><feColorMatrix in="SourceAlpha" values="0 0 0 0 0 0 0 0 0 0 0 0 0 0 0 0 0 0 127 0"/><feOffset dx="4" dy="4"/><feGaussianBlur stdDeviation="2"/><feColorMatrix values="0 0 0 0 0 0 0 0 0 0 0 0 0 0 0 0 0 0 0.2 0"/><feBlend in2="BackgroundImageFix" result="filter_dbcd8af7-09d9-802b-8005-b3daabb5e9ca"/><feBlend in="SourceGraphic" in2="filter_dbcd8af7-09d9-802b-8005-b3daabb5e9ca" result="shape"/><feGaussianBlur stdDeviation="4" result="filter_dbcd8af7-09d9-802b-8005-b3da4ee93179"/></filter><filter id="filter-shadow-render-3" x="-.09" y="-1.5" width="1.22" height="4.667" filterUnits="objectBoundingBox" color-interpolation-filters="sRGB"><feFlood flood-opacity="0" result="BackgroundImageFix"/><feColorMatrix in="SourceAlpha" values="0 0 0 0 0 0 0 0 0 0 0 0 0 0 0 0 0 0 127 0"/><feOffset dx="4" dy="4"/><feGaussianBlur stdDeviation="2"/><feColorMatrix values="0 0 0 0 0 0 0 0 0 0 0 0 0 0 0 0 0 0 0.2 0"/><feBlend in2="BackgroundImageFix" result="filter_dbcd8af7-09d9-802b-8005-b3daabb5e9ca"/><feBlend in="SourceGraphic" in2="filter_dbcd8af7-09d9-802b-8005-b3daabb5e9ca" result="shape"/></filter><filter id="filter-blur-render-3" x="-.027" y="-.444" width="1.053" height="1.889" filterUnits="objectBoundingBox" color-interpolation-filters="sRGB"><feFlood flood-opacity="0" result="BackgroundImageFix"/><feBlend in="SourceGraphic" in2="BackgroundImageFix" result="shape"/><feGaussianBlur stdDeviation="4" result="filter_dbcd8af7-09d9-802b-8005-b3da4ee93179"/></filter></defs><ellipse cx="192.523" cy="453.181" rx="150" ry="9" transform="matrix(1.000000, 0.000000, 0.000000, 1.000000, 0.000000, 0.000000)" filter="url(#filter-render-3)" style="fill: rgb(132, 129, 129); fill-opacity: 0.3;" class="fills" id="fills-dbcd8af7-09d9-802b-8005-b3d7804de41e"/></g><g id="shape-dbcd8af7-09d9-802b-8005-b3d538177a97"><path d="M74.01429898321044,70.21400737628676 h201.00000000000125 a100,100 0 0 1 100,100 v197.99999999999966 a0,0 0 0 1 0,0 h-201.00000000000125 a100,100 0 0 1 -100,-100 v-197.99999999999966 a0,0 0 0 1 0,0 z" transform="matrix(0.721419, 0.692499, -0.692499, 0.721419, 214.351084, -94.407039)" style="fill: rgb(255, 255, 255); fill-opacity: 1;" class="fills" id="fills-dbcd8af7-09d9-802b-8005-b3d538177a97"/><g id="strokes-dbcd8af7-09d9-802b-8005-b3d538177a97" class="strokes"><g class="inner-stroke-shape" transform="matrix(0.721419, 0.692499, -0.692499, 0.721419, 214.351084, -94.407039)"><defs><clipPath id="inner-stroke-render-4-dbcd8af7-09d9-802b-8005-b3d538177a97-0"><use href="#stroke-shape-render-4-dbcd8af7-09d9-802b-8005-b3d538177a97-0"/></clipPath><path d="M74.01429898321044,70.21400737628676 h201.00000000000125 a100,100 0 0 1 100,100 v197.99999999999966 a0,0 0 0 1 0,0 h-201.00000000000125 a100,100 0 0 1 -100,-100 v-197.99999999999966 a0,0 0 0 1 0,0 z" id="stroke-shape-render-4-dbcd8af7-09d9-802b-8005-b3d538177a97-0" style="fill: none; stroke-width: 2; stroke: rgb(9, 9, 9); stroke-opacity: 0.8;"/></defs><use href="#stroke-shape-render-4-dbcd8af7-09d9-802b-8005-b3d538177a97-0" clip-path="url('#inner-stroke-render-4-dbcd8af7-09d9-802b-8005-b3d538177a97-0')"/></g></g></g><g id="shape-dbcd8af7-09d9-802b-8005-b3d4bce05a6b"><path d="M57.75841182225474,70.50149896535811 h201.00000000000148 a100,100 0 0 1 100,100 v197.99999999999966 a0,0 0 0 1 0,0 h-201.00000000000148 a100,100 0 0 1 -100,-100 v-197.99999999999966 a0,0 0 0 1 0,0 z" transform="matrix(0.721419, 0.692499, -0.692499, 0.721419, 210.021583, -83.069758)" style="fill: rgb(255, 255, 255); fill-opacity: 1;" class="fills" id="fills-dbcd8af7-09d9-802b-8005-b3d4bce05a6b"/><g id="strokes-dbcd8af7-09d9-802b-8005-b3d4bce05a6b" class="strokes"><g class="inner-stroke-shape" transform="matrix(0.721419, 0.692499, -0.692499, 0.721419, 210.021583, -83.069758)"><defs><clipPath id="inner-stroke-render-5-dbcd8af7-09d9-802b-8005-b3d4bce05a6b-0"><use href="#stroke-shape-render-5-dbcd8af7-09d9-802b-8005-b3d4bce05a6b-0"/></clipPath><path d="M57.75841182225474,70.50149896535811 h201.00000000000148 a100,100 0 0 1 100,100 v197.99999999999966 a0,0 0 0 1 0,0 h-201.00000000000148 a100,100 0 0 1 -100,-100 v-197.99999999999966 a0,0 0 0 1 0,0 z" id="stroke-shape-render-5-dbcd8af7-09d9-802b-8005-b3d4bce05a6b-0" style="fill: none; stroke-width: 2; stroke: rgb(0, 0, 0); stroke-opacity: 1;"/></defs><use href="#stroke-shape-render-5-dbcd8af7-09d9-802b-8005-b3d4bce05a6b-0" clip-path="url('#inner-stroke-render-5-dbcd8af7-09d9-802b-8005-b3d4bce05a6b-0')"/></g></g></g><g id="shape-dbcd8af7-09d9-802b-8005-b3d4858b168a"><path d="M42.502524661299105,70.78899055442946 h201.00000000000097 a100,100 0 0 1 100,100 v197.99999999999966 a0,0 0 0 1 0,0 h-201.00000000000097 a100,100 0 0 1 -100,-100 v-197.99999999999966 a0,0 0 0 1 0,0 z" transform="matrix(0.721419, 0.692499, -0.692499, 0.721419, 205.970662, -72.424976)" style="fill: rgb(255, 255, 255); fill-opacity: 1;" class="fills" id="fills-dbcd8af7-09d9-802b-8005-b3d4858b168a"/><g id="strokes-dbcd8af7-09d9-802b-8005-b3d4858b168a" class="strokes"><g class="inner-stroke-shape" transform="matrix(0.721419, 0.692499, -0.692499, 0.721419, 205.970662, -72.424976)"><defs><clipPath id="inner-stroke-render-6-dbcd8af7-09d9-802b-8005-b3d4858b168a-0"><use href="#stroke-shape-render-6-dbcd8af7-09d9-802b-8005-b3d4858b168a-0"/></clipPath><path d="M42.502524661299105,70.78899055442946 h201.00000000000097 a100,100 0 0 1 100,100 v197.99999999999966 a0,0 0 0 1 0,0 h-201.00000000000097 a100,100 0 0 1 -100,-100 v-197.99999999999966 a0,0 0 0 1 0,0 z" id="stroke-shape-render-6-dbcd8af7-09d9-802b-8005-b3d4858b168a-0" style="fill: none; stroke-width: 2; stroke: rgb(0, 0, 0); stroke-opacity: 1;"/></defs><use href="#stroke-shape-render-6-dbcd8af7-09d9-802b-8005-b3d4858b168a-0" clip-path="url('#inner-stroke-render-6-dbcd8af7-09d9-802b-8005-b3d4858b168a-0')"/></g></g></g><g id="shape-dbcd8af7-09d9-802b-8005-b3d201539ccc"><path d="M29.091641455436786,70.40499318851471 h201.00000000000063 a100,100 0 0 1 100,100 v197.99999999999977 a0,0 0 0 1 0,0 h-201.00000000000063 a100,100 0 0 1 -100,-100 v-197.99999999999977 a0,0 0 0 1 0,0 z" transform="matrix(0.721419, 0.692499, -0.692499, 0.721419, 201.968721, -63.244923)" style="fill: rgb(7, 7, 7); fill-opacity: 1;" class="fills" id="fills-dbcd8af7-09d9-802b-8005-b3d201539ccc"/></g><g transform="matrix(0.721419, 0.692499, -0.692499, 0.721419, 200.128735, -67.328098)" class="text-container" id="shape-7bcfbc09-7a23-80d3-8005-ad0679771baa"><defs><pattern patternUnits="userSpaceOnUse" x="104.247" y="35.076" width="170.104" height="353.333" id="fill-0-render-8-0"><rect width="170.104" height="353.333" style="fill: rgb(246, 246, 246); fill-opacity: 1;"/></pattern></defs><text x="104.247" y="391.743" dominant-baseline="ideographic" textLength="170.104" lengthAdjust="spacingAndGlyphs" style="text-transform: none; font-family: Trochut; letter-spacing: normal; font-style: normal; font-weight: 400; white-space: pre; font-size: 300px; text-decoration: none solid rgb(246, 246, 246); direction: ltr; fill: rgb(246, 246, 246); fill-opacity: 1;" class="fills" id="fills-7bcfbc09-7a23-80d3-8005-ad0679771baa">E</text></g></g></g></g></g></svg>